PathFileType	4	(X/Y/Z)	E:/Marcel_BSc/Hannes_22_01_2025/22-01-2025/static_01_hjc.trc	
DataRate	CameraRate	NumFrames	NumMarkers	Units	OrigDataRate	OrigDataStartFrame	OrigNumFrames	
200.00	200.00	5	72	mm	200.00	187	497	
Frame#	Time	FHD			LBHD			RBHD			RBAR			LBAR			RASI			RSACR			LSACR			LASI			USACR			C7			CLAV			T10			RSHO			LSHO			LTHI1			LTHI3			LTHI2			LLFC			LMFC			LTIB1			LTIB2			LTIB3			LMMAL			LLMAL			LHEE			LMT1			LMT5			LMT3			RTHI1			RTHI2			RTHI3			RLFC			RMFC			RTIB1			RTIB3			RTIB2			RLMAL			RMMAL			RHEE			RMT5			RMT1			RMT3			LMEP			LLEP			LDUPA			LMUPA			LUUPA			LUL			LRAD			LRFIN			RUL			RRAD			RUFIN			RMEP			RLEP			RMUPA			RDUPA			RUUPA			*59			*60			*61			*62			*63			*64			*65			RAJC			LAJC			LKJC			RKJC			LHJC			RHJC			
		X1	Y1	Z1	X2	Y2	Z2	X3	Y3	Z3	X4	Y4	Z4	X5	Y5	Z5	X6	Y6	Z6	X7	Y7	Z7	X8	Y8	Z8	X9	Y9	Z9	X10	Y10	Z10	X11	Y11	Z11	X12	Y12	Z12	X13	Y13	Z13	X14	Y14	Z14	X15	Y15	Z15	X16	Y16	Z16	X17	Y17	Z17	X18	Y18	Z18	X19	Y19	Z19	X20	Y20	Z20	X21	Y21	Z21	X22	Y22	Z22	X23	Y23	Z23	X24	Y24	Z24	X25	Y25	Z25	X26	Y26	Z26	X27	Y27	Z27	X28	Y28	Z28	X29	Y29	Z29	X30	Y30	Z30	X31	Y31	Z31	X32	Y32	Z32	X33	Y33	Z33	X34	Y34	Z34	X35	Y35	Z35	X36	Y36	Z36	X37	Y37	Z37	X38	Y38	Z38	X39	Y39	Z39	X40	Y40	Z40	X41	Y41	Z41	X42	Y42	Z42	X43	Y43	Z43	X44	Y44	Z44	X45	Y45	Z45	X46	Y46	Z46	X47	Y47	Z47	X48	Y48	Z48	X49	Y49	Z49	X50	Y50	Z50	X51	Y51	Z51	X52	Y52	Z52	X53	Y53	Z53	X54	Y54	Z54	X55	Y55	Z55	X56	Y56	Z56	X57	Y57	Z57	X58	Y58	Z58	X59	Y59	Z59	X60	Y60	Z60	X61	Y61	Z61	X62	Y62	Z62	X63	Y63	Z63	X64	Y64	Z64	X65	Y65	Z65	X66	Y66	Z66	X67	Y67	Z67	X68	Y68	Z68	X69	Y69	Z69	X70	Y70	Z70	X71	Y71	Z71	X72	Y72	Z72	

187	0.930	66.63060	1220.78760	1709.71118	151.07474	1119.90564	1680.40540	163.60014	1314.15808	1675.72925	-530.27301	2111.36646	25.79383	-499.42548	-112.26736	36.27288	110.16099	1329.61609	988.13629	303.09973	1256.06726	1050.06689	303.62411	1148.63867	1055.48914	116.90738	1060.72534	995.09399	304.06277	1201.63318	1074.55762	295.04419	1206.80615	1492.93127	124.76286	1206.84021	1449.51099	293.97635	1202.07593	1170.59875	274.55438	1366.23352	1484.57751	273.24509	1046.49365	1491.22144	213.13177	982.70612	791.83411	234.30788	982.22168	728.94055	184.33116	973.28534	731.96094	223.60443	998.55634	504.19666	206.66647	1106.43860	464.99509	269.38373	961.67255	267.87494	319.79517	966.72864	278.00107	306.15674	968.36566	214.09962	277.43008	1054.36938	86.20832	309.68488	965.93585	80.10749	354.47623	1015.22662	22.00608	142.84016	996.71362	40.01096	185.67633	915.63330	26.59198	149.06569	948.54675	30.09778	222.53203	1410.12439	782.08398	190.71410	1417.17810	724.31458	239.99478	1408.54297	718.29028	218.16379	1383.92615	494.77173	196.14922	1277.34863	477.55869	244.93297	1414.34717	277.38849	268.64218	1413.96228	215.72891	295.01691	1422.76074	274.36755	295.12213	1409.93188	79.95995	257.50308	1322.68848	83.34362	343.86807	1366.37341	30.17105	184.12926	1460.96033	27.41787	124.54603	1389.68909	36.01771	135.75102	1438.13000	28.37720	217.16925	769.59283	1356.97864	280.31284	762.23920	1447.48083	288.99954	829.14893	1440.86865	254.61955	887.65839	1482.65552	291.85895	890.34961	1449.48657	200.61330	519.80219	1480.31384	158.52289	534.17371	1501.35291	116.42690	433.62708	1492.21387	216.26361	1901.74390	1468.79749	172.76590	1883.13318	1493.51611	156.47118	1995.72388	1489.46179	230.28612	1638.06226	1352.64661	295.70529	1653.42200	1440.61975	310.40793	1548.07324	1426.56335	290.24579	1585.78333	1451.62073	290.72879	1509.11230	1471.94141	-535.33002	1939.30542	33.12157	-507.13361	-21.86652	40.72368																276.31261	1366.31018	81.65179	293.55748	1010.15262	83.15791	215.13545	1052.49747	484.59587	207.15650	1330.63739	486.16521	210.26575	1104.68201	1025.29156	206.63036	1292.84167	1019.10159 
188	0.935	66.63350	1220.77832	1709.71545	151.06613	1119.91064	1680.39587	163.61609	1314.14893	1675.73035	-530.23895	2111.46411	25.83500	-499.42010	-112.27179	36.27183	110.19711	1329.59644	988.16119	303.10727	1256.06873	1050.05579	303.62137	1148.64014	1055.48560	116.92474	1060.71216	995.09930	304.06744	1201.63318	1074.55981	295.04337	1206.78186	1492.92712	124.75269	1206.81958	1449.53589	293.97626	1202.07654	1170.59314	274.56311	1366.21423	1484.58496	273.24734	1046.48511	1491.22388	213.12230	982.70673	791.83655	234.29918	982.22705	728.93866	184.34268	973.29016	731.94800	223.61514	998.55658	504.20282	206.67473	1106.44702	464.99823	269.44376	961.68164	267.86328	319.78906	966.72162	278.00226	306.15997	968.35797	214.09448	277.43234	1054.37561	86.22088	309.66931	965.93817	80.09654	354.47894	1015.23688	22.00589	142.84767	996.71765	40.01817	185.67960	915.63898	26.58770	149.07654	948.55353	30.09279	222.53842	1410.12878	782.08087	190.71600	1417.17834	724.31305	239.97867	1408.56226	718.30646	218.16708	1383.92395	494.78528	196.14316	1277.35669	477.55521	244.96965	1414.35962	277.38342	268.64401	1413.97046	215.72401	295.02008	1422.75830	274.36639	295.11676	1409.91980	79.96226	257.50653	1322.68848	83.34542	343.88458	1366.34705	30.18121	184.13452	1460.96716	27.43035	124.55100	1389.69128	35.99553	135.75031	1438.13574	28.37078	217.16304	769.59033	1356.96692	280.31461	762.23163	1447.46680	289.00577	829.13483	1440.84924	254.62692	887.64435	1482.65710	291.85306	890.33563	1449.48572	200.60835	519.79810	1480.29785	158.51756	534.17548	1501.33142	116.42608	433.61722	1492.19470	216.28551	1901.76563	1468.79602	172.79140	1883.12622	1493.52686	156.48871	1995.71326	1489.47937	230.32265	1638.05957	1352.68433	295.72168	1653.39868	1440.62878	310.42368	1548.05200	1426.56335	290.25714	1585.77222	1451.62549	290.75201	1509.09705	1471.94275	-535.66388	1939.99988	32.89711	-507.41882	-21.85908	40.78675	-533.99298	1926.34351	33.00028													276.31165	1366.30414	81.65384	293.55083	1010.15689	83.15871	215.14494	1052.50180	484.60052	207.15512	1330.64032	486.17024	210.27305	1104.67615	1025.29245	206.65219	1292.83258	1019.10849 
189	0.940	66.59994	1220.74902	1709.74133	151.07091	1119.89539	1680.39563	163.62323	1314.14233	1675.72693	-530.24213	2111.42896	25.79068	-499.43106	-112.28334	36.26840	110.18927	1329.58569	988.15118	303.11581	1256.06592	1050.05652	303.62799	1148.63977	1055.48499	116.92597	1060.71899	995.11371	304.06387	1201.63867	1074.56567	295.04999	1206.77490	1492.93713	124.74010	1206.79480	1449.56396	293.97366	1202.07556	1170.60095	274.58817	1366.21399	1484.57739	273.24954	1046.46790	1491.22534	213.12340	982.69855	791.82294	234.33177	982.21844	728.93958	184.34280	973.30225	731.94141	223.55449	998.56024	504.23660	206.68602	1106.44202	464.99167	269.38583	961.68262	267.89383	319.80411	966.71625	277.99533	306.16367	968.37415	214.09845	277.43814	1054.37292	86.20056	309.66876	965.93811	80.09604	354.48001	1015.23828	22.00214	142.85046	996.72662	40.00015	185.67117	915.63892	26.59536	149.06949	948.54950	30.08762	222.53677	1410.12500	782.08197	190.70862	1417.18237	724.30920	239.96672	1408.58228	718.30469	218.16333	1383.92859	494.78635	196.13466	1277.35059	477.55383	244.89510	1414.26587	277.39291	268.65497	1413.96436	215.72038	295.02026	1422.75281	274.37012	295.11951	1409.91711	79.95860	257.50211	1322.68811	83.34167	343.87927	1366.35095	30.17834	184.12505	1460.95325	27.40495	124.55297	1389.69153	35.99929	135.74297	1438.13379	28.37271	217.14929	769.57709	1356.95068	280.32193	762.21771	1447.45374	289.01129	829.13116	1440.82642	254.62846	887.63556	1482.64417	291.86295	890.32916	1449.47131	200.59726	519.79901	1480.26526	158.51378	534.17700	1501.31946	116.41490	433.61826	1492.18127	216.29874	1901.74548	1468.82544	172.80200	1883.11877	1493.54773	156.49384	1995.70447	1489.49390	230.33865	1638.03174	1352.69836	295.73395	1653.40186	1440.64124	310.44394	1548.04626	1426.57178	290.27020	1585.75623	1451.63843	290.76401	1509.07788	1471.95129							-534.17200	1926.10889	33.08509													276.31081	1366.30261	81.65014	293.55345	1010.15552	83.14830	215.12025	1052.50113	484.61414	207.14899	1330.63959	486.17009	210.27698	1104.67938	1025.29935	206.65254	1292.82581	1019.10385 
190	0.945	66.63424	1220.77075	1709.72156	151.05345	1119.88391	1680.39526	163.64157	1314.13037	1675.72852	-530.18933	2111.53711	25.84008	-499.43033	-112.27086	36.26800	110.24329	1329.59692	988.16534	303.11118	1256.07214	1050.05518	303.62701	1148.63867	1055.47595	116.91963	1060.73120	995.12292	304.07285	1201.63586	1074.56177	295.04654	1206.75317	1492.92688	124.75008	1206.78809	1449.57568	293.98444	1202.06042	1170.60608	274.58517	1366.19263	1484.58447	273.24506	1046.46692	1491.21277	213.11293	982.72827	791.81458	234.32037	982.21277	728.94330	184.33835	973.29688	731.94885	223.61520	998.55908	504.20770	206.68752	1106.44080	464.99261	269.39636	961.68323	267.86481	319.80914	966.71863	277.98102	306.16269	968.38025	214.09084	277.43362	1054.37573	86.20667	309.67749	965.94489	80.09715	354.47516	1015.25018	22.01339	142.83929	996.72467	40.01228	185.67491	915.62982	26.59195	149.06546	948.54742	30.09669	222.54018	1410.11621	782.07617	190.71106	1417.17920	724.30847	239.97258	1408.57996	718.29913	218.16684	1383.93030	494.77786	196.13269	1277.34766	477.56360	244.94022	1414.32178	277.38705	268.63553	1413.96912	215.71205	295.01617	1422.76343	274.37650	295.11227	1409.93176	79.97583	257.49902	1322.68494	83.34332	343.86697	1366.37451	30.17986	184.13324	1460.96130	27.41607	124.54663	1389.69043	36.00213	135.74715	1438.13196	28.37376	217.18282	769.58356	1356.95483	280.33090	762.20667	1447.42090	289.01669	829.12476	1440.81970	254.63489	887.62634	1482.63892	291.86230	890.32074	1449.45166	200.60284	519.77997	1480.24158	158.49553	534.18097	1501.28247	116.40224	433.60559	1492.15710	216.31451	1901.75122	1468.83069	172.81630	1883.10608	1493.56653	156.49997	1995.69141	1489.52356	230.37346	1638.03308	1352.69739	295.74918	1653.37012	1440.65283	310.45877	1548.02869	1426.57800	290.30283	1585.74231	1451.64233	290.79660	1509.07959	1471.94275	-534.79211	1935.54712	32.93157	-572.70587	1996.20459	9.77512				-507.48099	-20.91220	39.50891										276.30565	1366.30835	81.65958	293.55556	1010.16031	83.15191	215.15136	1052.49994	484.60016	207.14977	1330.63898	486.17073	210.27332	1104.68494	1025.29944	206.67723	1292.83453	1019.11026 
191	0.950	66.61128	1220.74109	1709.74902	151.06808	1119.87610	1680.39136	163.65851	1314.12854	1675.72217	-530.18970	2111.56567	25.82012	-499.42700	-112.27151	36.26940	110.32665	1329.59094	988.19525	303.11871	1256.06799	1050.06165	303.63504	1148.63928	1055.47546	116.94305	1060.72571	995.12878	304.08752	1201.62720	1074.55310	295.04572	1206.74792	1492.92554	124.74831	1206.78394	1449.58130	293.98184	1202.05896	1170.59912	274.59464	1366.17798	1484.58777	273.24948	1046.47314	1491.19165	213.14409	982.70074	791.82837	234.32333	982.21802	728.92151	184.35536	973.30072	731.95923	223.56007	998.55634	504.23584	206.69531	1106.44934	464.99017	269.42963	961.69781	267.85483	319.79523	966.71533	277.97955	306.17664	968.36462	214.08606	277.44501	1054.37073	86.20337	309.67963	965.95221	80.09255	354.47675	1015.22949	22.00585	142.83948	996.72217	40.01004	185.67670	915.63171	26.60118	149.07524	948.54779	30.09359	222.53659	1410.13135	782.06799	190.71936	1417.17212	724.30646	239.97710	1408.56824	718.27582	218.16692	1383.92078	494.77802	196.12151	1277.34265	477.56888	244.89075	1414.25195	277.39273	268.64566	1413.97949	215.71591	295.00684	1422.76318	274.35898	295.12296	1409.93188	79.96082	257.49408	1322.68384	83.34888	343.84888	1366.39465	30.16612	184.12907	1460.95032	27.40084	124.54716	1389.69177	36.00845	135.74854	1438.13647	28.37675	217.18214	769.57281	1356.93030	280.33286	762.19891	1447.40588	289.02020	829.11285	1440.80200	254.63858	887.61749	1482.62976	291.86066	890.31647	1449.44263	200.58786	519.78522	1480.21521	158.49936	534.17175	1501.27502	116.38557	433.60776	1492.14197	216.34355	1901.76587	1468.83215	172.83931	1883.06519	1493.58716	156.51521	1995.69836	1489.52734	230.37682	1638.03210	1352.69958	295.75653	1653.37366	1440.66174	310.47629	1548.01636	1426.57458	290.31665	1585.73145	1451.63904	290.81415	1509.05908	1471.94788	-536.03967	1937.65869	33.01148				-507.55527	-4.73732	40.29639	-507.28836	-22.68627	40.71973										276.30852	1366.30786	81.65485	293.56232	1010.16147	83.14796	215.12769	1052.50284	484.61301	207.14421	1330.63171	486.17345	210.28905	1104.68250	1025.30212	206.72268	1292.82947	1019.12845 
